<svg width="174" height="54" viewBox="0 0 174 54" fill="none" xmlns="http://www.w3.org/2000/svg">
<g id="Kidsland logo 303030 copy 1">
<g id="Group">
<g id="Group_2">
<g id="Group_3">
<path id="Vector" d="M1.71094 8.75781H5.4175V32.2546L15.5312 22.462H20.8056L10.0756 32.5904L21.9022 44.7155H16.4375L5.4175 33.017V44.7155H1.71094V8.75781Z" fill="#303030"/>
<path id="Vector_2" d="M27.6394 11.0352C29.1619 11.0352 30.3491 12.2694 30.3491 13.7488C30.3491 15.2281 29.2072 16.4624 27.6394 16.4624C26.0716 16.4624 24.9297 15.3189 24.9297 13.7488C24.9297 12.1787 26.1169 11.0352 27.6394 11.0352ZM25.7816 22.4523H29.4881V44.7057H25.7816V22.4523Z" fill="#303030"/>
<path id="Vector_3" d="M55.3253 40.7585H55.2347C53.8572 43.2815 50.6763 45.2781 46.6888 45.2781C40.4719 45.2781 35.5781 40.2412 35.5781 33.5797C35.5781 26.9181 40.2816 21.8812 47.2597 21.8812C54.2378 21.8812 53.1956 23.306 55.2347 25.6839H55.3253V8.75781H59.0319V44.7064H55.3253V40.7585ZM47.4409 25.3027C42.6469 25.3027 39.5566 28.9148 39.5566 33.5797C39.5566 38.2445 42.6469 41.8566 47.4409 41.8566C52.235 41.8566 55.3253 38.2445 55.3253 33.5797C55.3253 28.9148 52.235 25.3027 47.4409 25.3027Z" fill="#303030"/>
<path id="Vector_4" d="M66.3372 38.8535C67.8053 40.6596 69.4275 41.8485 72.0375 41.8485C74.6475 41.8485 76.9312 40.8502 76.9312 38.427C76.9312 36.0038 74.5569 35.432 72.1825 34.9057C67.9594 33.9527 64.3434 33.0542 64.3434 28.4347C64.3434 23.8152 68.5212 21.873 72.6537 21.873C76.7862 21.873 78.6803 23.062 80.2028 25.9117L77.1125 27.9537C76.1609 26.3836 74.5931 25.2946 72.4091 25.2946C70.225 25.2946 68.0409 26.2929 68.0409 28.3893C68.0409 30.4858 70.6962 31.0485 73.6416 31.6203C77.5837 32.3826 80.9097 33.8075 80.9097 38.2818C80.9097 42.7561 76.4419 45.27 72.0284 45.27C67.615 45.27 65.5669 44.2717 63.3828 41.1315L66.3281 38.8445L66.3372 38.8535Z" fill="#303030"/>
<path id="Vector_5" d="M86.4258 8.75781H90.1323V44.7064H86.4258V8.75781Z" fill="#303030"/>
<path id="Vector_6" d="M97.2027 25.3024C99.4864 22.9699 102.803 21.8809 106.039 21.8809C112.591 21.8809 115.346 25.021 115.346 31.3014V40.858C115.346 42.1377 115.491 43.5716 115.681 44.7061H112.12C111.884 43.7077 111.884 42.3283 111.884 41.3753H111.793C110.325 43.6624 107.851 45.2778 104.48 45.2778C101.109 45.2778 96.2148 42.9908 96.2148 38.6708C96.2148 31.3014 104.761 30.8748 110.225 30.8748H111.648V30.2123C111.648 26.9814 109.609 25.3114 106.138 25.3114C102.667 25.3114 101.299 26.1192 99.5408 27.7346L97.2117 25.3114L97.2027 25.3024ZM107.933 34.0059C103.229 34.0059 100.193 35.2856 100.193 38.2896C100.193 41.2936 102.287 42.1377 105.087 42.1377C109.365 42.1377 111.549 39.0429 111.639 35.4308V34.0059H107.933Z" fill="#303030"/>
<path id="Vector_7" d="M122.132 27.7268C122.132 25.6848 121.941 23.9241 121.941 22.4448H125.458C125.458 23.6337 125.548 24.868 125.548 26.1023H125.639C126.636 23.9151 129.391 21.873 133.043 21.873C138.888 21.873 141.498 25.585 141.498 30.9578V44.6983H137.792V31.3389C137.792 27.627 136.179 25.3036 132.708 25.3036C129.237 25.3036 125.82 28.7796 125.82 33.862V44.7073H122.114V27.7268H122.132Z" fill="#303030"/>
<path id="Vector_8" d="M167.013 40.7585H166.922C165.545 43.2815 162.364 45.2781 158.376 45.2781C152.159 45.2781 147.266 40.2412 147.266 33.5797C147.266 26.9181 151.969 21.8812 158.947 21.8812C165.925 21.8812 164.883 23.306 166.922 25.6839H167.013V8.75781H170.719V44.7064H167.013V40.7585ZM159.128 25.3027C154.334 25.3027 151.244 28.9148 151.244 33.5797C151.244 38.2445 154.334 41.8566 159.128 41.8566C163.923 41.8566 167.013 38.2445 167.013 33.5797C167.013 28.9148 163.923 25.3027 159.128 25.3027Z" fill="#303030"/>
</g>
</g>
</g>
</g>
</svg>
