<svg width="16" height="16" viewBox="0 0 16 16" fill="none" xmlns="http://www.w3.org/2000/svg">
<mask id="mask0_1_430" style="mask-type:alpha" maskUnits="userSpaceOnUse" x="0" y="0" width="16" height="16">
<g clip-path="url(#clip0_1_430)">
<g clip-path="url(#clip1_1_430)">
<path fill-rule="evenodd" clip-rule="evenodd" d="M1.5 8H14.167H1.5ZM1.5 8L6.25 3L1.5 8ZM1.5 8L6.25 13L1.5 8Z" fill="black"/>
<path d="M1.5 8H14.167M1.5 8L6.25 3M1.5 8L6.25 13" stroke="black" stroke-width="1.3" stroke-linecap="round" stroke-linejoin="round"/>
</g>
</g>
</mask>
<g mask="url(#mask0_1_430)">
<rect width="15" height="15" transform="translate(0.5 0.5)" fill="#393939"/>
<g clip-path="url(#clip2_1_430)">
<g clip-path="url(#clip3_1_430)">
<path fill-rule="evenodd" clip-rule="evenodd" d="M1.5 8H14.167H1.5ZM1.5 8L6.25 3L1.5 8ZM1.5 8L6.25 13L1.5 8Z" fill="#121212"/>
<path d="M1.5 8H14.167M1.5 8L6.25 3M1.5 8L6.25 13" stroke="#121212" stroke-width="1.3" stroke-linecap="round" stroke-linejoin="round"/>
</g>
</g>
</g>
<defs>
<clipPath id="clip0_1_430">
<rect width="15" height="15" fill="white" transform="translate(0.5 0.5)"/>
</clipPath>
<clipPath id="clip1_1_430">
<rect width="15" height="15" fill="white" transform="translate(0.5 0.5)"/>
</clipPath>
<clipPath id="clip2_1_430">
<rect width="15" height="15" fill="white" transform="translate(0.5 0.5)"/>
</clipPath>
<clipPath id="clip3_1_430">
<rect width="15" height="15" fill="white" transform="translate(0.5 0.5)"/>
</clipPath>
</defs>
</svg>
