<svg width="17" height="17" viewBox="0 0 17 17" fill="none" xmlns="http://www.w3.org/2000/svg">
<path d="M8.47204 1.70097C10.6124 1.70097 10.8636 1.71051 11.7096 1.74868C12.4919 1.78367 12.9149 1.91409 13.1979 2.02542C13.5732 2.17174 13.8403 2.34351 14.1202 2.62343C14.4001 2.90335 14.575 3.17054 14.7181 3.54589C14.8262 3.82899 14.9598 4.25205 14.9948 5.03455C15.0329 5.88067 15.0425 6.13196 15.0425 8.27271C15.0425 10.4135 15.0329 10.6648 14.9948 11.5109C14.9598 12.2934 14.8294 12.7164 14.7181 12.9995C14.5718 13.3749 14.4001 13.6421 14.1202 13.922C13.8403 14.2019 13.5732 14.3769 13.1979 14.52C12.9149 14.6282 12.4919 14.7618 11.7096 14.7967C10.8636 14.8349 10.6124 14.8445 8.47204 14.8445C6.33172 14.8445 6.08048 14.8349 5.23453 14.7967C4.45218 14.7618 4.0292 14.6313 3.74616 14.52C3.37089 14.3737 3.10374 14.2019 2.82388 13.922C2.54402 13.6421 2.3691 13.3749 2.22599 12.9995C2.11786 12.7164 1.98429 12.2934 1.9493 11.5109C1.91114 10.6648 1.9016 10.4135 1.9016 8.27271C1.9016 6.13196 1.91114 5.88067 1.9493 5.03455C1.98429 4.25205 2.11468 3.82899 2.22599 3.54589C2.37228 3.17054 2.54402 2.90335 2.82388 2.62343C3.10374 2.34351 3.37089 2.16856 3.74616 2.02542C4.0292 1.91727 4.45218 1.78367 5.23453 1.74868C6.08048 1.70733 6.33172 1.70097 8.47204 1.70097ZM8.47204 0.256836C6.29674 0.256836 6.02323 0.266379 5.16774 0.304549C4.31543 0.34272 3.73344 0.479499 3.22459 0.676715C2.69667 0.880293 2.25143 1.15703 1.80619 1.60236C1.36095 2.04768 1.08745 2.49619 0.880733 3.02104C0.683557 3.52999 0.546805 4.11209 0.508642 4.96775C0.470478 5.82024 0.460938 6.09379 0.460938 8.26953C0.460938 10.4453 0.470478 10.7188 0.508642 11.5745C0.546805 12.427 0.683557 13.0091 0.880733 13.5212C1.08427 14.0492 1.36095 14.4946 1.80619 14.9399C2.25143 15.3852 2.69985 15.6588 3.22459 15.8655C3.73344 16.0627 4.31543 16.1995 5.17092 16.2377C6.02641 16.2759 6.29674 16.2854 8.47522 16.2854C10.6537 16.2854 10.924 16.2759 11.7795 16.2377C12.6318 16.1995 13.2138 16.0627 13.7259 15.8655C14.2538 15.6619 14.699 15.3852 15.1443 14.9399C15.5895 14.4946 15.863 14.0461 16.0697 13.5212C16.2669 13.0123 16.4036 12.4302 16.4418 11.5745C16.48 10.7188 16.4895 10.4485 16.4895 8.26953C16.4895 6.09061 16.48 5.82024 16.4418 4.96457C16.4036 4.11209 16.2669 3.52999 16.0697 3.01786C15.8662 2.48983 15.5895 2.0445 15.1443 1.59918C14.699 1.15385 14.2506 0.880293 13.7259 0.673534C13.217 0.476318 12.635 0.339539 11.7795 0.301369C10.9209 0.266379 10.6473 0.256836 8.47204 0.256836Z" fill="#303030"/>
<path d="M8.19087 3.81934C5.89137 3.81934 4.02344 5.68405 4.02344 7.98676C4.02344 10.2895 5.89137 12.1542 8.19087 12.1542C10.4904 12.1542 12.3583 10.2863 12.3583 7.98676C12.3583 5.68727 10.4904 3.81934 8.19087 3.81934ZM8.19087 10.692C6.69652 10.692 5.48558 9.48111 5.48558 7.98676C5.48558 6.49242 6.69652 5.28148 8.19087 5.28148C9.68521 5.28148 10.8962 6.49242 10.8962 7.98676C10.8962 9.48111 9.68521 10.692 8.19087 10.692Z" fill="#303030"/>
<path d="M13.0008 5.74276C13.5319 5.74276 13.9625 5.31219 13.9625 4.78105C13.9625 4.24991 13.5319 3.81934 13.0008 3.81934C12.4696 3.81934 12.0391 4.24991 12.0391 4.78105C12.0391 5.31219 12.4696 5.74276 13.0008 5.74276Z" fill="#303030"/>
</svg>
