<svg width="51" height="9" viewBox="0 0 51 9" fill="none" xmlns="http://www.w3.org/2000/svg">
<path d="M3.21117 0.3242H0.980469V8.16734H3.21117C4.45044 8.16734 5.27663 7.84054 6.10281 7.26864C7.01162 6.53335 7.50733 5.38956 7.50733 4.24577C7.50733 1.87649 5.77234 0.3242 3.21117 0.3242ZM5.02877 6.12485C4.61568 6.61505 3.95473 6.77845 2.96331 6.77845H2.55022V1.63139H2.96331C3.95473 1.63139 4.61568 1.79479 5.11139 2.28498C5.68972 2.77518 6.02019 3.51047 6.02019 4.24577C5.93758 4.98106 5.6071 5.71636 5.02877 6.12485ZM8.25089 0.3242H9.82064V8.16734H8.25089V0.3242ZM13.5385 3.34708C12.6297 3.02028 12.3818 2.77518 12.3818 2.36668C12.3818 1.87649 12.8775 1.46799 13.5385 1.46799C14.0342 1.46799 14.3647 1.63139 14.7778 2.12159L15.6039 1.05949C14.943 0.487598 14.1168 0.160801 13.2906 0.160801C11.8861 0.160801 10.8121 1.14119 10.8121 2.44838C10.8121 3.51047 11.3078 4.08237 12.7123 4.57257C13.2906 4.73596 13.6211 4.89936 13.7863 4.98106C14.1168 5.14446 14.282 5.47126 14.282 5.79806C14.282 6.45165 13.7863 6.86015 13.1254 6.86015C12.3818 6.86015 11.8035 6.53335 11.3904 5.79806L10.399 6.69675C11.1425 7.67714 11.9687 8.16734 13.1254 8.16734C14.7778 8.16734 15.8518 7.10525 15.8518 5.55296C15.8518 4.49087 15.3561 3.91897 13.5385 3.34708ZM16.2649 4.24577C16.2649 6.53335 18.0825 8.33074 20.4784 8.33074C21.1394 8.33074 21.7177 8.24904 22.3787 7.84054V6.04315C21.7177 6.69675 21.222 6.94185 20.561 6.94185C18.9913 6.94185 17.9173 5.79806 17.9173 4.24577C17.9173 2.69348 19.0739 1.54969 20.561 1.54969C21.3046 1.54969 21.8829 1.79479 22.4613 2.44838V0.569298C21.7177 0.2425 21.222 0.0791016 20.561 0.0791016C18.1651 0.0791016 16.2649 1.95819 16.2649 4.24577ZM34.6888 5.55296L32.5407 0.3242H30.8884L34.2757 8.33074H35.1019L38.4893 0.3242H36.8369L34.6888 5.55296ZM39.1502 8.08564H43.529V6.77845H40.7199V4.65426H43.4464V3.34708H40.7199V1.63139H43.529V0.3242H39.1502V8.08564ZM49.6427 2.61178C49.6427 1.14119 48.6513 0.3242 46.8337 0.3242H44.5204V8.16734H46.0901V4.98106H46.2554L48.4035 8.16734H50.3037L47.8251 4.81766C49.0644 4.57257 49.6427 3.83727 49.6427 2.61178ZM46.5859 3.91897H46.1728V1.54969H46.6685C47.5773 1.54969 48.1556 1.95819 48.1556 2.69348C48.073 3.51047 47.5773 3.91897 46.5859 3.91897ZM50.6342 0.569298C50.6342 0.405899 50.5515 0.405899 50.3863 0.405899H50.1385V1.14119H50.3037V0.814396L50.4689 1.05949H50.7168L50.4689 0.814396C50.6342 0.732696 50.6342 0.732696 50.6342 0.569298ZM50.3863 0.732696V0.569298C50.4689 0.569298 50.4689 0.569298 50.4689 0.650997C50.4689 0.650997 50.4689 0.732696 50.3863 0.732696ZM50.3863 0.0791016C50.0558 0.0791016 49.808 0.3242 49.808 0.650997C49.808 0.977794 50.0558 1.22289 50.3863 1.22289C50.7168 1.22289 50.9646 0.977794 50.9646 0.650997C51.0473 0.405899 50.7994 0.0791016 50.3863 0.0791016ZM50.3863 1.22289C50.1385 1.22289 49.8906 0.977794 49.8906 0.732696C49.8906 0.487598 50.0558 0.2425 50.3863 0.2425C50.6342 0.2425 50.882 0.487598 50.882 0.732696C50.882 0.977794 50.7168 1.22289 50.3863 1.22289ZM27.0879 0.0791016C29.4012 0.0791016 31.3014 1.95819 31.3014 4.24577C31.3014 6.53335 29.4012 8.41243 27.0879 8.41243C24.7746 8.41243 22.8744 6.53335 22.8744 4.24577C22.8744 1.95819 24.7746 0.0791016 27.0879 0.0791016Z" fill="white"/>
</svg>
