<svg width="51" height="31" viewBox="0 0 51 31" fill="none" xmlns="http://www.w3.org/2000/svg">
<g id="icon-logo-googlepay" clip-path="url(#clip0_70_143)">
<path id="Vector" d="M24.5574 15.0182V20.8385H22.7109V6.46483H27.6081C28.1926 6.45262 28.7738 6.5563 29.3181 6.76987C29.8623 6.98344 30.3589 7.30269 30.7792 7.70918C31.2036 8.091 31.5415 8.55926 31.7699 9.08248C31.9984 9.60571 32.1123 10.1718 32.1038 10.7427C32.1159 11.3166 32.0039 11.8863 31.7752 12.4129C31.5466 12.9395 31.2068 13.4104 30.7792 13.7933C29.9228 14.6099 28.8658 15.0178 27.6081 15.017H24.5574V15.0182ZM24.5574 8.23445V13.252H27.6539C27.9934 13.2621 28.3312 13.2012 28.6458 13.0732C28.9604 12.9452 29.2448 12.753 29.4809 12.5088C29.7157 12.2805 29.9024 12.0075 30.0298 11.7058C30.1573 11.4041 30.223 11.0799 30.223 10.7524C30.223 10.4249 30.1573 10.1007 30.0298 9.79902C29.9024 9.49733 29.7157 9.22427 29.4809 8.99597C29.2478 8.74665 28.9644 8.54972 28.6494 8.41824C28.3344 8.28675 27.9951 8.22371 27.6539 8.2333H24.5574V8.23445Z" fill="white"/>
<path id="Vector_2" d="M36.358 10.6826C37.7228 10.6826 38.8001 11.0473 39.5899 11.7767C40.3797 12.5061 40.7742 13.5062 40.7735 14.7769V20.8381H39.0073V19.4734H38.927C38.1624 20.5973 37.1455 21.1593 35.8763 21.1593C34.7929 21.1593 33.8865 20.8381 33.1571 20.1959C32.8071 19.9011 32.5272 19.5319 32.3379 19.1153C32.1487 18.6987 32.0547 18.245 32.063 17.7875C32.063 16.7698 32.4476 15.9605 33.2168 15.3595C33.9859 14.7586 35.0127 14.4573 36.2972 14.4558C37.3936 14.4558 38.2966 14.6565 39.0061 15.0579V14.6359C39.0082 14.3239 38.9409 14.0155 38.809 13.7328C38.6771 13.4501 38.4839 13.2003 38.2435 13.0016C37.7552 12.561 37.1188 12.3207 36.4612 12.3284C35.4298 12.3284 34.6136 12.7634 34.0127 13.6335L32.3864 12.6094C33.281 11.3249 34.6048 10.6826 36.358 10.6826ZM33.9691 17.8276C33.9679 18.0626 34.0228 18.2945 34.1293 18.504C34.2359 18.7134 34.3909 18.8944 34.5815 19.0318C34.9899 19.353 35.4968 19.5232 36.0163 19.5135C36.7954 19.5122 37.5423 19.2021 38.0932 18.6511C38.7049 18.0753 39.0107 17.3998 39.0107 16.6245C38.435 16.1658 37.6322 15.9364 36.6023 15.9364C35.8523 15.9364 35.2268 16.1172 34.726 16.4789C34.2203 16.8459 33.9691 17.292 33.9691 17.8276Z" fill="white"/>
<path id="Vector_3" d="M50.9121 11.0029L44.7465 25.1725H42.8404L45.1284 20.2146L41.0742 11.0029H43.0812L46.0115 18.0676H46.0516L48.9016 11.0029H50.9121Z" fill="white"/>
<path id="Vector_4" d="M17.0974 13.764C17.0981 13.2013 17.0505 12.6395 16.9552 12.085H9.16797V15.2652H13.6281C13.5369 15.7732 13.3437 16.2574 13.0603 16.6886C12.7768 17.1199 12.409 17.4893 11.9789 17.7746V19.8389H14.6408C16.1994 18.4019 17.0974 16.2768 17.0974 13.764Z" fill="white"/>
<path id="Vector_5" d="M9.16686 21.8323C11.3952 21.8323 13.2715 21.1006 14.6397 19.8391L11.9778 17.7747C11.237 18.277 10.2828 18.5638 9.16686 18.5638C7.01305 18.5638 5.18494 17.1118 4.53122 15.1553H1.78906V17.2827C2.47634 18.6503 3.53021 19.8 4.83301 20.6034C6.13581 21.4068 7.63627 21.8323 9.16686 21.8323Z" fill="white"/>
<path id="Vector_6" d="M4.53159 15.1544C4.18599 14.1292 4.18599 13.0189 4.53159 11.9937V9.86621H1.78943C1.21126 11.0167 0.910156 12.2864 0.910156 13.574C0.910156 14.8616 1.21126 16.1314 1.78943 17.2819L4.53159 15.1544Z" fill="white"/>
<path id="Vector_7" d="M9.16686 8.5865C10.3445 8.56726 11.4823 9.01219 12.3345 9.82512L14.6913 7.4683C13.1969 6.06462 11.217 5.29398 9.16686 5.31792C7.63627 5.31799 6.13581 5.74348 4.83301 6.54687C3.53021 7.35026 2.47634 8.49993 1.78906 9.86755L4.53122 11.995C5.18494 10.0384 7.01305 8.5865 9.16686 8.5865Z" fill="white"/>
</g>
<defs>
<clipPath id="clip0_70_143">
<rect width="50" height="30" fill="white" transform="translate(0.910156 0.245117)"/>
</clipPath>
</defs>
</svg>
