<svg width="42" height="20" viewBox="0 0 42 20" fill="none" xmlns="http://www.w3.org/2000/svg">
<g id="icon-logo-apple-pay" clip-path="url(#clip0_70_152)">
<path id="logo-apple-pay-XMLID_34_" d="M8.38515 3.99922C7.90468 4.56777 7.13593 5.01621 6.36718 4.95215C6.27108 4.1834 6.64745 3.3666 7.08788 2.86211C7.56835 2.27754 8.40917 1.86113 9.08983 1.8291C9.16991 2.62988 8.85761 3.41465 8.38515 3.99922ZM9.08183 5.1043C7.96874 5.04023 7.01581 5.73691 6.4873 5.73691C5.95077 5.73691 5.14198 5.13633 4.26112 5.15234C3.11601 5.16836 2.05097 5.81699 1.4664 6.85C0.265225 8.91602 1.15409 11.975 2.31523 13.6566C2.88378 14.4895 3.56444 15.4023 4.46132 15.3703C5.31015 15.3383 5.64647 14.8178 6.67147 14.8178C7.70448 14.8178 8.00077 15.3703 8.89765 15.3543C9.82655 15.3383 10.4111 14.5215 10.9797 13.6887C11.6283 12.7438 11.8926 11.8229 11.9086 11.7748C11.8926 11.7588 10.1148 11.0781 10.0988 9.02813C10.0828 7.31445 11.5002 6.49766 11.5642 6.44961C10.7635 5.26445 9.51425 5.13633 9.08183 5.1043ZM15.5121 2.78203V15.2662H17.45V10.998H20.1326C22.583 10.998 24.3047 9.31641 24.3047 6.88203C24.3047 4.44766 22.615 2.78203 20.1967 2.78203H15.5121ZM17.45 4.41562H19.6842C21.3658 4.41562 22.3267 5.3125 22.3267 6.89004C22.3267 8.46758 21.3658 9.37246 19.6762 9.37246H17.45V4.41562ZM27.8441 15.3623C29.0613 15.3623 30.1904 14.7457 30.7029 13.7688H30.743V15.2662H32.5367V9.05215C32.5367 7.25039 31.0953 6.08926 28.8771 6.08926C26.8191 6.08926 25.2976 7.26641 25.2416 8.88398H26.9873C27.1314 8.11523 27.8441 7.61074 28.8211 7.61074C30.0062 7.61074 30.6709 8.16328 30.6709 9.18027V9.86895L28.2525 10.0131C26.0023 10.1492 24.7851 11.0701 24.7851 12.6717C24.7851 14.2893 26.0424 15.3623 27.8441 15.3623ZM28.3646 13.8809C27.3316 13.8809 26.675 13.3844 26.675 12.6236C26.675 11.8389 27.3076 11.3824 28.5168 11.3104L30.6709 11.1742V11.8789C30.6709 13.048 29.6779 13.8809 28.3646 13.8809ZM34.931 18.6615C36.8209 18.6615 37.7098 17.9408 38.4865 15.7547L41.8898 6.20937H39.9199L37.6377 13.5846H37.5976L35.3154 6.20937H33.2894L36.5726 15.2982L36.3965 15.8508C36.1002 16.7877 35.6197 17.148 34.7629 17.148C34.6107 17.148 34.3144 17.132 34.1943 17.116V18.6135C34.3064 18.6455 34.7869 18.6615 34.931 18.6615Z" fill="white"/>
</g>
<defs>
<clipPath id="clip0_70_152">
<rect width="41" height="19" fill="white" transform="translate(0.890625 0.745117)"/>
</clipPath>
</defs>
</svg>
