<svg width="51" height="14" viewBox="0 0 51 14" fill="none" xmlns="http://www.w3.org/2000/svg">
<path d="M28.3652 4.12986H26.5019C26.3237 4.12986 26.157 4.21592 26.0572 4.35982L23.4867 8.04698L22.3976 4.50373C22.3292 4.28204 22.1196 4.12986 21.882 4.12986H20.0507C19.8296 4.12986 19.6739 4.34184 19.7453 4.54554L21.7967 10.4117L19.8671 13.0638C19.7158 13.2719 19.8687 13.5597 20.1306 13.5597H21.9918C22.168 13.5597 22.3332 13.4756 22.4341 13.3346L28.6302 4.62333C28.7784 4.41476 28.6257 4.12986 28.3652 4.12986ZM15.9087 7.64438C15.7295 8.67604 14.889 9.36884 13.8163 9.36884C13.2788 9.36884 12.848 9.20014 12.5715 8.88121C12.2975 8.56519 12.1942 8.11451 12.281 7.61326C12.4477 6.59035 13.3022 5.87567 14.3584 5.87567C14.885 5.87567 15.3122 6.04583 15.5942 6.36768C15.8782 6.69196 15.99 7.14507 15.9087 7.64438ZM18.4921 4.12981H16.6384C16.4797 4.12981 16.3444 4.24212 16.3194 4.39526L16.2381 4.89991L16.1088 4.71711C15.707 4.14975 14.8121 3.95965 13.9187 3.95965C11.8707 3.95965 10.1213 5.47166 9.78091 7.59187C9.60372 8.64979 9.85528 9.66054 10.4712 10.366C11.0367 11.0141 11.8438 11.2839 12.8056 11.2839C14.4567 11.2839 15.3721 10.2512 15.3721 10.2512L15.2893 10.753C15.2583 10.9436 15.4095 11.1162 15.6082 11.1162H17.2773C17.5423 11.1162 17.7674 10.929 17.8088 10.6742L18.8111 4.49299C18.842 4.30241 18.6903 4.12981 18.4921 4.12981ZM7.368 4.17318C7.15637 5.52669 6.09523 5.52669 5.06853 5.52669H4.48455L4.89433 2.99955C4.91877 2.84689 5.05405 2.73459 5.21278 2.73459H5.48081C6.17958 2.73459 6.83942 2.73459 7.17983 3.12207C7.38347 3.35397 7.44486 3.69819 7.368 4.17318ZM6.92128 0.641602H3.05007C2.78503 0.641602 2.55993 0.829265 2.5185 1.08402L0.953248 10.7531C0.922302 10.9437 1.07354 11.1163 1.27169 11.1163H3.12045C3.38498 11.1163 3.61009 10.9286 3.65151 10.6743L4.07427 8.0655C4.1152 7.81074 4.34081 7.62308 4.60534 7.62308H5.83019C8.38022 7.62308 9.85214 6.42126 10.2365 4.03851C10.4097 2.99712 10.2435 2.1784 9.74283 1.6052C9.1923 0.975118 8.21651 0.641602 6.92128 0.641602Z" fill="white"/>
<path d="M47.7942 0.907298L46.2055 10.7533C46.1746 10.9439 46.3258 11.1165 46.524 11.1165H48.1222C48.3867 11.1165 48.6123 10.9288 48.6532 10.6741L50.22 1.00502C50.2509 0.814439 50.0997 0.641847 49.901 0.641847H48.1132C47.9539 0.641847 47.8187 0.754153 47.7942 0.907298ZM43.0259 7.64438C42.8467 8.67604 42.0062 9.36884 40.9336 9.36884C40.396 9.36884 39.9653 9.20014 39.6887 8.88121C39.4142 8.56519 39.3114 8.11451 39.3983 7.61326C39.565 6.59035 40.4195 5.87567 41.4756 5.87567C42.0022 5.87567 42.4294 6.04583 42.7114 6.36768C42.9954 6.69196 43.1072 7.14507 43.0259 7.64438ZM45.6094 4.12981H43.7556C43.5969 4.12981 43.4616 4.24212 43.4367 4.39526L43.3553 4.89991L43.2255 4.71711C42.8242 4.14975 41.9293 3.95965 41.0359 3.95965C38.988 3.95965 37.2385 5.47166 36.8981 7.59187C36.7209 8.64979 36.9725 9.66054 37.5884 10.366C38.1539 11.0141 38.961 11.2839 39.9228 11.2839C41.5739 11.2839 42.4893 10.2512 42.4893 10.2512L42.4065 10.753C42.3755 10.9436 42.5268 11.1162 42.7254 11.1162H44.3945C44.6595 11.1162 44.8846 10.929 44.9261 10.6742L45.9283 4.49299C45.9592 4.30241 45.8075 4.12981 45.6094 4.12981ZM34.4852 4.17318C34.2735 5.52669 33.2124 5.52669 32.1857 5.52669H31.6017L32.0115 2.99955C32.036 2.84689 32.1712 2.73459 32.33 2.73459H32.598C33.2968 2.73459 33.9566 2.73459 34.297 3.12207C34.5006 3.35397 34.562 3.69819 34.4852 4.17318ZM34.0385 0.641602H30.1672C29.9022 0.641602 29.6771 0.829265 29.6357 1.08402L28.0704 10.7531C28.0395 10.9437 28.1912 11.1163 28.3889 11.1163H30.3754C30.5606 11.1163 30.7183 10.985 30.7472 10.807L31.1914 8.0655C31.2324 7.81074 31.458 7.62308 31.7225 7.62308H32.9474C35.4974 7.62308 36.9693 6.42126 37.3536 4.03851C37.5268 2.99712 37.3606 2.1784 36.86 1.6052C36.3095 0.975118 35.3337 0.641602 34.0385 0.641602Z" fill="white"/>
</svg>
