<svg width="50" height="9" viewBox="0 0 50 9" fill="none" xmlns="http://www.w3.org/2000/svg">
<path d="M49.585 6.18115V6.28037H49.6331H49.6812C49.6812 6.28037 49.6812 6.28037 49.6812 6.23076C49.6812 6.23076 49.6812 6.23076 49.6812 6.18115C49.6812 6.18115 49.6812 6.18115 49.6331 6.18115H49.585ZM49.6812 6.13154C49.7293 6.13154 49.7293 6.13154 49.7773 6.13154L49.8254 6.18115V6.23076C49.8254 6.23076 49.7773 6.23076 49.7773 6.28037L49.8735 6.37959H49.8254L49.7293 6.28037H49.6812V6.37959H49.6331V6.08193H49.6812V6.13154ZM49.6331 6.47881C49.6812 6.47881 49.6812 6.47881 49.7293 6.47881C49.7773 6.47881 49.7773 6.4292 49.8254 6.4292C49.8254 6.4292 49.8735 6.37959 49.8735 6.32998C49.8735 6.28037 49.8735 6.28037 49.8735 6.23076C49.8735 6.18115 49.8735 6.18115 49.8735 6.13154C49.8735 6.08193 49.8254 6.08193 49.8254 6.03232C49.8254 5.98271 49.7773 5.98271 49.7293 5.98271C49.6812 5.98271 49.6812 5.98271 49.6331 5.98271C49.585 5.98271 49.585 5.98271 49.537 5.98271C49.4889 5.98271 49.4889 6.03232 49.4408 6.03232C49.3927 6.03232 49.3927 6.08193 49.3927 6.13154C49.3927 6.18115 49.3927 6.18115 49.3927 6.23076C49.3927 6.28037 49.3927 6.28037 49.3927 6.32998C49.3927 6.37959 49.4408 6.37959 49.4408 6.4292C49.4408 6.4292 49.4889 6.47881 49.537 6.47881C49.585 6.47881 49.6331 6.47881 49.6331 6.47881ZM49.6331 5.9331C49.6812 5.9331 49.7293 5.9331 49.7293 5.9331C49.7773 5.9331 49.7773 5.98271 49.8254 5.98271C49.8735 6.03232 49.8735 6.03232 49.8735 6.08193C49.8735 6.13154 49.8735 6.18115 49.8735 6.18115V6.28037C49.8735 6.32998 49.8254 6.32998 49.8254 6.37959C49.7773 6.4292 49.7773 6.4292 49.7293 6.4292C49.6812 6.4292 49.6331 6.4292 49.6331 6.4292C49.585 6.4292 49.537 6.4292 49.537 6.4292C49.4889 6.4292 49.4889 6.37959 49.4408 6.37959C49.3927 6.32998 49.3927 6.32998 49.3927 6.28037C49.3927 6.23076 49.3927 6.18115 49.3927 6.18115V6.08193C49.3927 6.03232 49.4408 6.03232 49.4408 5.98271C49.4889 5.9331 49.4889 5.9331 49.537 5.9331C49.585 5.9331 49.6331 5.9331 49.6331 5.9331ZM21.7004 4.84168C21.7004 4.29597 22.037 3.84947 22.6139 3.84947C23.1427 3.84947 23.5273 4.29597 23.5273 4.84168C23.5273 5.38739 23.1427 5.83388 22.6139 5.83388C22.037 5.83388 21.7004 5.38739 21.7004 4.84168ZM24.1043 4.84168V3.30376H23.4312V3.70064C23.2389 3.40298 22.9023 3.25415 22.4697 3.25415C21.6523 3.25415 20.9793 3.94869 20.9793 4.89129C20.9793 5.83388 21.6523 6.52842 22.4697 6.52842C22.9023 6.52842 23.1908 6.32998 23.4312 6.08193V6.47881H24.1043V4.84168ZM46.1235 4.84168C46.1235 4.29597 46.46 3.84947 47.037 3.84947C47.5658 3.84947 47.9504 4.29597 47.9504 4.84168C47.9504 5.38739 47.5658 5.83388 47.037 5.83388C46.5081 5.83388 46.1235 5.38739 46.1235 4.84168ZM48.5754 4.84168V2.06351H47.9023V3.70064C47.71 3.40298 47.3735 3.25415 46.9408 3.25415C46.1235 3.25415 45.4504 3.94869 45.4504 4.89129C45.4504 5.83388 46.1235 6.52842 46.9408 6.52842C47.3735 6.52842 47.662 6.32998 47.9023 6.08193V6.47881H48.5754V4.84168ZM32.1812 3.79986C32.6139 3.79986 32.8543 4.04791 32.9504 4.54402H31.412C31.46 4.14713 31.7485 3.79986 32.1812 3.79986ZM32.2293 3.20454C31.3639 3.20454 30.7389 3.84947 30.7389 4.84168C30.7389 5.83388 31.3639 6.47881 32.2773 6.47881C32.71 6.47881 33.1427 6.37959 33.5273 6.03232L33.1908 5.53622C32.9504 5.73466 32.6139 5.88349 32.3254 5.88349C31.8927 5.88349 31.5081 5.68505 31.412 5.13934H33.6235C33.6235 5.04012 33.6235 4.99051 33.6235 4.89129C33.6235 3.89908 33.0466 3.20454 32.2293 3.20454ZM40.0658 4.84168C40.0658 4.29597 40.4023 3.84947 40.9793 3.84947C41.5081 3.84947 41.8927 4.29597 41.8927 4.84168C41.8927 5.38739 41.5081 5.83388 40.9793 5.83388C40.4504 5.83388 40.0658 5.38739 40.0658 4.84168ZM42.5177 4.84168V3.30376H41.8447V3.70064C41.6523 3.40298 41.3158 3.25415 40.8831 3.25415C40.0658 3.25415 39.3927 3.94869 39.3927 4.89129C39.3927 5.83388 40.0658 6.52842 40.8831 6.52842C41.3158 6.52842 41.6043 6.32998 41.8447 6.08193V6.47881H42.5177V4.84168ZM36.412 4.84168C36.412 5.78427 37.037 6.47881 37.9985 6.47881C38.4312 6.47881 38.7677 6.37959 39.0562 6.13154L38.7197 5.58583C38.4793 5.78427 38.2389 5.88349 37.9504 5.88349C37.4216 5.88349 37.037 5.48661 37.037 4.89129C37.037 4.29596 37.4216 3.89908 37.9504 3.89908C38.2389 3.89908 38.4793 3.9983 38.7197 4.19674L39.0562 3.65103C38.7197 3.40298 38.4312 3.30376 37.9985 3.30376C37.037 3.20454 36.412 3.89908 36.412 4.84168ZM44.8254 3.20454C44.4408 3.20454 44.2004 3.40298 44.0562 3.65103V3.30376H43.4312V6.37959H44.1043V4.64324C44.1043 4.14713 44.2966 3.84947 44.7293 3.84947C44.8735 3.84947 45.0177 3.84947 45.1139 3.94869L45.3062 3.30376C45.1139 3.25415 44.9216 3.20454 44.8254 3.20454ZM27.3254 3.55181C26.9889 3.35337 26.5562 3.20454 26.1235 3.20454C25.3543 3.20454 24.8735 3.60142 24.8735 4.19674C24.8735 4.69285 25.2581 4.99051 25.9312 5.08973L26.2197 5.13934C26.5562 5.18895 26.7485 5.28817 26.7485 5.48661C26.7485 5.73466 26.5081 5.88349 26.0754 5.88349C25.6427 5.88349 25.3062 5.73466 25.0658 5.53622L24.7773 6.08193C25.1139 6.32998 25.5947 6.47881 26.0754 6.47881C26.9408 6.47881 27.4216 6.08193 27.4216 5.48661C27.4216 4.9409 27.037 4.64324 26.3639 4.54402L26.0273 4.49441C25.7389 4.4448 25.4985 4.39519 25.4985 4.19674C25.4985 3.94869 25.6908 3.84947 26.0754 3.84947C26.46 3.84947 26.8447 3.9983 26.9889 4.09752L27.3254 3.55181ZM35.7389 3.20454C35.3543 3.20454 35.1139 3.40298 34.9697 3.65103V3.30376H34.3447V6.37959H35.0177V4.64324C35.0177 4.14713 35.21 3.84947 35.6427 3.84947C35.787 3.84947 35.9312 3.84947 36.0273 3.94869L36.2197 3.30376C36.0754 3.25415 35.8831 3.20454 35.7389 3.20454ZM30.162 3.30376H29.1043V2.36117H28.4312V3.30376H27.8543V3.89908H28.4793V5.28817C28.4793 5.98271 28.7677 6.4292 29.537 6.4292C29.8254 6.4292 30.162 6.32998 30.3543 6.18115L30.162 5.58583C29.9697 5.68505 29.7773 5.78427 29.585 5.78427C29.2485 5.78427 29.1523 5.58583 29.1523 5.28817V3.89908H30.21L30.162 3.30376ZM20.4504 6.37959V4.4448C20.4504 3.70064 20.0177 3.20454 19.2485 3.20454C18.8639 3.20454 18.4793 3.30376 18.1908 3.75025C17.9985 3.40298 17.662 3.20454 17.1812 3.20454C16.8447 3.20454 16.5562 3.30376 16.3158 3.65103V3.30376H15.6427V6.37959H16.3158V4.69285C16.3158 4.14713 16.6043 3.84947 17.037 3.84947C17.4697 3.84947 17.71 4.14713 17.71 4.64324V6.37959H18.3831V4.69285C18.3831 4.14713 18.6716 3.84947 19.1043 3.84947C19.537 3.84947 19.7773 4.14713 19.7773 4.64324V6.37959H20.4504ZM6.55619 6.57803C5.93119 6.03232 5.4985 5.18895 5.4985 4.24635C5.4985 3.30376 5.93119 2.46039 6.55619 1.91467C7.22927 2.46039 7.66196 3.25415 7.66196 4.24635C7.66196 5.18895 7.22927 6.03232 6.55619 6.57803ZM5.11388 4.24635C5.11388 5.48661 5.69081 6.62765 6.55619 7.32219C5.93119 7.8679 5.06581 8.16556 4.20042 8.16556C2.08504 8.16556 0.402344 6.37959 0.402344 4.24635C0.402344 2.11312 2.13311 0.327148 4.20042 0.327148C5.11388 0.327148 5.93119 0.62481 6.55619 1.17052C5.69081 1.86506 5.11388 2.95649 5.11388 4.24635ZM12.7581 4.24635C12.7581 2.06351 11.0273 0.327148 8.96004 0.327148C8.04658 0.327148 7.22927 0.62481 6.60427 1.17052C7.46965 1.91467 8.04657 3.0061 8.04657 4.24635C8.04657 5.48661 7.46965 6.62765 6.60427 7.32219C7.27734 7.8679 8.09465 8.16556 8.96004 8.16556C11.0273 8.16556 12.7581 6.4292 12.7581 4.24635Z" fill="white"/>
</svg>
