<svg width="50" height="20" viewBox="0 0 50 20" fill="none" xmlns="http://www.w3.org/2000/svg">
<path d="M42.4306 0.354492V1.72198L41.5222 0.354492H38.2141V2.75068L37.1891 0.372972L31.4321 0.354492C29.8977 0.354492 28.9648 1.22919 28.9648 1.22919V0.354492H11.2334L10.6319 2.09774L10.012 0.354492H6.05944V2.763L5.01606 0.354492H1.84294L0.0078125 4.65408V8.07897H2.27871L2.76357 6.85932H4.06474L4.55574 8.07897H23.0175V6.85932L24.0057 8.07897H28.9709V7.22275C28.9709 7.22275 29.8118 8.07897 31.1314 8.07897H34.4272L34.9059 6.85932H36.2132L36.7043 8.07897H41.5652V6.71148L42.4367 8.07897H45.7756V0.354492H42.4306ZM5.19405 7.09339L4.73987 5.93534H2.08231L1.62199 7.09339H0.0078125L2.48738 1.30927H4.36548L6.84505 7.09339H5.19405ZM14.2224 7.09339H12.7801V2.83076L11.2518 7.09339H9.98748L8.45309 2.83076V7.09339H7.01076V1.30927L9.30621 1.31543L10.6381 5.04215L11.9392 1.30311H14.2163V7.09339H14.2224ZM19.9119 2.60285H16.6651V3.59458H19.8321V4.81424H16.6651V5.84294H19.9119V7.09955H15.2105V1.31543H19.9119V2.60285ZM24.5212 7.09339L22.7966 5.03599H22.1889V7.09339H20.7466V1.30927H23.9504C25.0122 1.30927 25.9635 1.96838 25.9635 3.18803C25.9635 4.22905 25.1595 4.90048 24.38 4.96208L26.2765 7.09339H24.5212ZM28.0258 7.09339H26.5527V1.30927H28.0258V7.09339ZM31.5119 7.09339H31.1927C29.6583 7.09339 28.7254 5.8799 28.7254 4.22289C28.7254 2.52893 29.6461 1.30927 31.5855 1.30927H33.1752V2.67676H31.5242C30.7386 2.67676 30.18 3.29275 30.18 4.23521C30.18 5.35631 30.8183 5.82446 31.7328 5.82446H32.1134L31.5119 7.09339ZM37.3548 7.09339L36.9007 5.93534H34.2431L33.7828 7.09339H32.1686L34.6482 1.30927H36.5263L39.0058 7.09339H37.3548ZM44.7813 7.09339H43.0075L40.6077 3.36667V7.09339H39.1654V1.30927H40.9944L43.3328 4.9436V1.30927H44.7751V7.09339H44.7813Z" fill="white"/>
<path fill-rule="evenodd" clip-rule="evenodd" d="M34.7539 4.67796H36.3742L35.5641 2.65137L34.7539 4.67796Z" fill="white"/>
<path fill-rule="evenodd" clip-rule="evenodd" d="M23.8324 2.60254H22.1875V3.82219H23.8569C24.1454 3.82219 24.5198 3.60044 24.5198 3.21237C24.5136 2.91053 24.2252 2.60254 23.8324 2.60254Z" fill="white"/>
<path fill-rule="evenodd" clip-rule="evenodd" d="M2.59766 4.67796H4.21797L3.40781 2.65137L2.59766 4.67796Z" fill="white"/>
<path fill-rule="evenodd" clip-rule="evenodd" d="M25.1118 13.7275H23.5273V15.0581H25.1057C25.5262 15.0581 25.8187 14.7809 25.8187 14.3928C25.8187 13.9801 25.5201 13.7275 25.1118 13.7275Z" fill="white"/>
<path fill-rule="evenodd" clip-rule="evenodd" d="M30.9535 13.71H29.3203V14.9296H30.9779C31.2643 14.9296 31.636 14.7079 31.636 14.3198C31.636 14.018 31.3496 13.71 30.9535 13.71Z" fill="white"/>
<path d="M47.3044 18.2005H44.2574V16.9439H47.1216C47.5482 16.9439 47.731 16.7098 47.731 16.4573C47.731 16.217 47.5482 15.9706 47.1216 15.9706H45.8297C44.7023 15.9706 44.0807 15.2807 44.0807 14.2397C44.0807 13.3096 44.6535 12.4164 46.3233 12.4164H49.0534V11.4678H19.6804L18.7846 12.6135L17.9192 11.4678H9.82031V19.1923H17.8644L18.7419 18.0219L19.6073 19.1923H24.4642V17.4059H25.555C26.4996 17.4059 26.9383 17.1164 26.9383 17.1164V19.1923H30.1438V17.9726L31.1249 19.1923H47.3897C48.2795 19.1861 49.0473 18.6625 49.0473 18.6625V17.0979C48.8157 17.7447 48.2429 18.2005 47.3044 18.2005ZM15.4633 13.71H12.2396V14.7017H15.3841V15.9214H12.2396V16.9501H15.4633V18.2067H10.7954V12.4226H15.4633V13.71ZM21.8864 18.2005H20.0826L18.7358 16.4203L17.4256 18.2005H15.6462L17.9192 15.3423L15.5913 12.4164H17.3951L18.7785 14.2274L20.1679 12.4164H21.8986L19.6012 15.3115L21.8864 18.2005ZM25.0309 16.3772H23.5257V18.2067H22.057V12.4226H25.2198C26.5178 12.4226 27.2735 13.2665 27.2735 14.3691C27.2674 15.6934 26.3046 16.3772 25.0309 16.3772ZM31.6368 18.2005L29.9244 16.1431H29.3211V18.2005H27.889V12.4164H31.07C32.1243 12.4164 33.0689 13.0755 33.0689 14.2952C33.0689 15.3362 32.2706 16.0076 31.4966 16.0692L33.3797 18.2005H31.6368ZM38.3402 13.71H35.1165V14.7017H38.2488V15.9214H35.1165V16.9501H38.3402V18.2067H33.6722V12.4226H38.3402V13.71ZM42.0514 18.2005H39.0044V16.9439H41.8686C42.2952 16.9439 42.478 16.7098 42.478 16.4573C42.478 16.217 42.2952 15.9706 41.8686 15.9706H40.5767C39.4493 15.9706 38.8277 15.2807 38.8277 14.2397C38.8277 13.3096 39.4005 12.4164 41.0703 12.4164H43.8552L43.2519 13.7161H40.8448C40.3817 13.7161 40.2415 13.9625 40.2415 14.1966C40.2415 14.4368 40.4182 14.7017 40.7656 14.7017H42.1185C43.3738 14.7017 43.9162 15.4224 43.9162 16.3649C43.9223 17.3751 43.3129 18.2005 42.0514 18.2005Z" fill="white"/>
<path fill-rule="evenodd" clip-rule="evenodd" d="M46.0916 13.7166C45.6284 13.7166 45.4883 13.963 45.4883 14.197C45.4883 14.4373 45.665 14.7022 46.0124 14.7022H47.3652C48.2854 14.7022 48.8217 15.0902 49.0411 15.6631V12.54L48.4926 13.7227H46.0916V13.7166Z" fill="white"/>
</svg>
