<svg width="51" height="31" viewBox="0 0 51 31" fill="none" xmlns="http://www.w3.org/2000/svg">
<g id="icon-logo-amazonpay" clip-path="url(#clip0_70_130)">
<path id="Vector" fill-rule="evenodd" clip-rule="evenodd" d="M20.65 17.9532C18.8023 19.3168 16.1235 20.042 13.8166 20.042C10.5837 20.042 7.67237 18.8469 5.46916 16.8576C5.29637 16.7012 5.45047 16.4879 5.65838 16.6089C8.03523 17.992 10.9749 18.8251 14.0106 18.8251C16.0586 18.8251 18.31 18.3999 20.3815 17.5212C20.6939 17.389 20.9559 17.7272 20.65 17.9532Z" fill="white"/>
<path id="Vector_2" fill-rule="evenodd" clip-rule="evenodd" d="M21.4203 17.0755C21.1838 16.7729 19.8581 16.9321 19.2624 17.0035C19.082 17.0253 19.054 16.8676 19.2166 16.7534C20.2743 16.0104 22.0075 16.2248 22.2089 16.4738C22.4118 16.7245 22.1554 18.4623 21.1645 19.2914C21.0119 19.4189 20.8668 19.3509 20.9345 19.1827C21.1578 18.6255 21.6569 17.3786 21.4203 17.0755Z" fill="white"/>
<path id="Vector_3" fill-rule="evenodd" clip-rule="evenodd" d="M19.3055 11.5034V10.7816C19.3061 10.6717 19.3888 10.5986 19.4885 10.5989L22.7239 10.5986C22.8273 10.5986 22.9106 10.6737 22.9106 10.7808V11.3997C22.9094 11.5037 22.8219 11.6391 22.667 11.8541L20.9909 14.247C21.6129 14.2326 22.271 14.3258 22.8364 14.6433C22.9638 14.715 22.9981 14.8212 23.008 14.9252V15.6954C23.008 15.8016 22.8919 15.9242 22.7695 15.8605C21.7738 15.3387 20.4524 15.2818 19.3511 15.8667C19.2386 15.9268 19.1211 15.8056 19.1211 15.6993V14.9671C19.1211 14.8501 19.1234 14.6496 19.2415 14.4711L21.183 11.6855L19.4924 11.6852C19.3891 11.6852 19.3061 11.6116 19.3055 11.5034Z" fill="white"/>
<path id="Vector_4" fill-rule="evenodd" clip-rule="evenodd" d="M7.50427 16.0135H6.51994C6.42618 16.0075 6.3514 15.9373 6.34375 15.8472L6.3446 10.7952C6.3446 10.6944 6.42958 10.6136 6.53467 10.6136L7.4513 10.6133C7.54705 10.6182 7.62409 10.6907 7.63004 10.783V11.4425H7.64874C7.88753 10.8045 8.33763 10.5068 8.9441 10.5068C9.55962 10.5068 9.94571 10.8045 10.2213 11.4425C10.4601 10.8045 11.0023 10.5068 11.581 10.5068C11.9945 10.5068 12.4446 10.6771 12.7203 11.0598C13.0327 11.4852 12.9687 12.1016 12.9687 12.6438L12.9675 15.8319C12.9675 15.9324 12.8829 16.0135 12.7778 16.0135H11.7948C11.6957 16.0072 11.6181 15.929 11.6181 15.8322L11.6178 13.1539C11.6178 12.9415 11.6362 12.4101 11.59 12.2081C11.5167 11.8676 11.2963 11.7719 11.0116 11.7719C10.7726 11.7719 10.5244 11.9314 10.4233 12.1863C10.3222 12.4418 10.3315 12.8667 10.3315 13.1539V15.8319C10.3315 15.9324 10.2465 16.0135 10.1417 16.0135H9.15852C9.05967 16.0072 8.98177 15.929 8.98177 15.8322L8.98064 13.1539C8.98064 12.5905 9.0727 11.7617 8.37446 11.7617C7.66687 11.7617 7.69463 12.5693 7.69463 13.1539L7.69406 15.8319C7.69406 15.9324 7.60908 16.0135 7.50427 16.0135Z" fill="white"/>
<path id="Vector_5" fill-rule="evenodd" clip-rule="evenodd" d="M25.7038 11.5382C24.9781 11.5382 24.9322 12.5265 24.9322 13.1432C24.9322 13.7598 24.9231 15.0781 25.695 15.0781C26.4576 15.0781 26.4944 14.015 26.4944 13.3666C26.4944 12.9415 26.4757 12.431 26.3471 12.0271C26.2369 11.6761 26.0162 11.5382 25.7038 11.5382ZM25.695 10.5068C27.1558 10.5068 27.9458 11.7617 27.9458 13.3562C27.9458 14.8971 27.0731 16.12 25.695 16.12C24.2614 16.12 23.4805 14.8654 23.4805 13.3029C23.4805 11.7294 24.2705 10.5068 25.695 10.5068Z" fill="white"/>
<path id="Vector_6" fill-rule="evenodd" clip-rule="evenodd" d="M29.8388 16.0135H28.8579C28.7596 16.0072 28.6814 15.929 28.6814 15.8322L28.6797 10.7785C28.6882 10.6859 28.7698 10.6136 28.8689 10.6136L29.7819 10.6133C29.868 10.6179 29.9388 10.6762 29.9569 10.7547V11.5274H29.9753C30.2512 10.8363 30.6367 10.5068 31.3166 10.5068C31.7576 10.5068 32.1896 10.6663 32.4652 11.1023C32.7224 11.5062 32.7224 12.1863 32.7224 12.6755V15.8545C32.7116 15.9441 32.6312 16.0135 32.5338 16.0135H31.5471C31.4559 16.0078 31.3826 15.9407 31.3718 15.8545V13.1117C31.3718 12.5588 31.4364 11.7506 30.7563 11.7506C30.5175 11.7506 30.2968 11.9101 30.1866 12.1546C30.0487 12.463 30.0303 12.7712 30.0303 13.1117V15.8319C30.0286 15.9324 29.9436 16.0135 29.8388 16.0135Z" fill="white"/>
<path id="Vector_7" fill-rule="evenodd" clip-rule="evenodd" d="M17.7168 16.0006C17.6519 16.0589 17.5582 16.0629 17.4845 16.0235C17.1576 15.7519 17.099 15.6264 16.9203 15.3675C16.3801 15.9179 15.9974 16.083 15.2975 16.083C14.4689 16.083 13.8242 15.5715 13.8242 14.5489C13.8242 13.7498 14.2573 13.2065 14.874 12.9402C15.4079 12.7057 16.1538 12.6632 16.7248 12.5992V12.4714C16.7248 12.2366 16.7432 11.9601 16.605 11.7576C16.4852 11.5763 16.2552 11.5018 16.0526 11.5018C15.677 11.5018 15.3436 11.6942 15.2615 12.0927C15.2442 12.1814 15.1796 12.2695 15.0907 12.274L14.1364 12.1706C14.0559 12.1522 13.9664 12.0876 13.9894 11.9647C14.2061 10.8234 15.2252 10.4676 16.1515 10.458H16.2246C16.6988 10.464 17.3044 10.594 17.6732 10.9478C18.1522 11.3953 18.1057 11.9919 18.1057 12.642V14.1753C18.1057 14.6367 18.2975 14.8389 18.4774 15.0874C18.5405 15.1772 18.5544 15.2834 18.4742 15.3491C18.2731 15.5176 17.9159 15.8278 17.7196 16.0029L17.7168 16.0006ZM16.7248 13.6008C16.7248 13.9843 16.7339 14.3039 16.5407 14.6449C16.3841 14.9217 16.1354 15.0922 15.8592 15.0922C15.4819 15.0922 15.2609 14.8047 15.2609 14.3784C15.2609 13.5399 16.0127 13.3875 16.7248 13.3875V13.6008Z" fill="white"/>
<path id="Vector_8" fill-rule="evenodd" clip-rule="evenodd" d="M4.81475 16.0006C4.74959 16.0589 4.65555 16.0629 4.58219 16.0235C4.25502 15.7519 4.19638 15.6264 4.01793 15.3675C3.47747 15.9179 3.09506 16.083 2.39512 16.083C1.56658 16.083 0.921875 15.5715 0.921875 14.5489C0.921875 13.7498 1.35442 13.2065 1.97164 12.9402C2.50559 12.7057 3.25142 12.6632 3.8222 12.5992V12.4714C3.8222 12.2366 3.84089 11.9601 3.70266 11.7576C3.58284 11.5763 3.35255 11.5018 3.1503 11.5018C2.77469 11.5018 2.44073 11.6942 2.35915 12.0927C2.34215 12.1814 2.27728 12.2695 2.18806 12.274L1.23403 12.1706C1.1533 12.1522 1.06379 12.0876 1.08702 11.9647C1.30315 10.8234 2.32261 10.4676 3.24916 10.458H3.32224C3.79642 10.464 4.40203 10.594 4.77084 10.9478C5.24955 11.3953 5.20338 11.9919 5.20338 12.642V14.1753C5.20338 14.6367 5.39515 14.8389 5.57502 15.0874C5.63762 15.1772 5.65207 15.2834 5.5719 15.3491C5.37079 15.5176 5.01331 15.8278 4.81701 16.0029L4.81475 16.0006ZM3.8222 13.6008C3.8222 13.9843 3.83154 14.3039 3.63807 14.6449C3.48171 14.9217 3.23301 15.0922 2.95655 15.0922C2.57924 15.0922 2.3583 14.8047 2.3583 14.3784C2.3583 13.5399 3.11036 13.3875 3.8222 13.3875V13.6008Z" fill="white"/>
<path id="Vector_9" fill-rule="evenodd" clip-rule="evenodd" d="M46.1809 17.8249C46.1809 17.6969 46.1809 17.5819 46.1809 17.4538C46.1809 17.3482 46.2327 17.2754 46.3429 17.2819C46.5486 17.3111 46.8395 17.3402 47.046 17.2978C47.3156 17.2417 47.5091 17.0505 47.6235 16.7884C47.7847 16.4196 47.8915 16.1222 47.9589 15.927L45.9112 10.8544C45.8767 10.7683 45.8665 10.6085 46.0384 10.6085H46.7542C46.8907 10.6085 46.9463 10.6952 46.9769 10.7802L48.4614 14.9005L49.8786 10.7802C49.9075 10.6958 49.9656 10.6085 50.101 10.6085H50.776C50.9468 10.6085 50.9371 10.768 50.9032 10.8544L48.8719 16.0854C48.609 16.7817 48.2589 17.8906 47.4703 18.0832C47.0749 18.1866 46.576 18.1492 46.2831 18.0266C46.2092 17.9895 46.1809 17.8903 46.1809 17.8249Z" fill="white"/>
<path id="Vector_10" fill-rule="evenodd" clip-rule="evenodd" d="M45.2236 15.7028C45.2236 15.7971 45.1462 15.8744 45.0513 15.8744H44.5466C44.4375 15.8744 44.363 15.7957 44.3491 15.7028L44.2984 15.3592C44.0664 15.5555 43.7818 15.728 43.473 15.8481C42.8793 16.0786 42.1949 16.1169 41.6148 15.7605C41.1953 15.5031 40.9727 14.9997 40.9727 14.4805C40.9727 14.0788 41.0964 13.6805 41.3709 13.3913C41.7372 12.9962 42.268 12.8022 42.909 12.8022C43.2963 12.8022 43.8503 12.8478 44.2534 12.9795V12.288C44.2534 11.585 43.9574 11.2807 43.177 11.2807C42.5805 11.2807 42.1241 11.3708 41.489 11.5683C41.3874 11.5717 41.3279 11.4943 41.3279 11.4V11.0057C41.3279 10.9111 41.4086 10.8196 41.4961 10.7918C41.9496 10.5941 42.5921 10.4709 43.275 10.4482C44.1653 10.4482 45.2236 10.6491 45.2236 12.0184V15.7028ZM44.2534 14.6932V13.65C43.9146 13.5573 43.354 13.5188 43.1371 13.5188C42.7943 13.5188 42.419 13.5998 42.223 13.8108C42.0765 13.9655 42.0102 14.1876 42.0102 14.4023C42.0102 14.6799 42.1063 14.9583 42.3306 15.096C42.5912 15.273 42.9954 15.2515 43.3753 15.1436C43.7404 15.0399 44.0832 14.8566 44.2534 14.6932Z" fill="white"/>
<path id="Vector_11" fill-rule="evenodd" clip-rule="evenodd" d="M37.7807 11.2971C38.9007 11.2971 39.2058 12.1778 39.2058 13.1862C39.212 13.866 39.0871 14.4722 38.735 14.8192C38.4716 15.079 38.1773 15.1498 37.7343 15.1498C37.34 15.1498 36.8213 14.9441 36.4338 14.6577V11.7744C36.8372 11.4645 37.3519 11.2971 37.7807 11.2971ZM36.2621 18.0059H35.586C35.4914 18.0059 35.4141 17.9286 35.4141 17.8342C35.4141 15.486 35.4141 13.1375 35.4141 10.7892C35.4141 10.6949 35.4914 10.6176 35.586 10.6176H36.1035C36.2123 10.6176 36.2868 10.6963 36.3007 10.7892L36.3551 11.1583C36.8397 10.728 37.4637 10.4521 38.0583 10.4521C39.7236 10.4521 40.2712 11.8243 40.2712 13.2511C40.2712 14.7776 39.4335 16.0041 38.017 16.0041C37.4204 16.0041 36.8627 15.784 36.4338 15.4016V17.8342C36.4338 17.9286 36.3565 18.0059 36.2621 18.0059Z" fill="white"/>
</g>
<defs>
<clipPath id="clip0_70_130">
<rect width="50" height="30" fill="white" transform="translate(0.921875 0.245117)"/>
</clipPath>
</defs>
</svg>
