<svg width="51" height="31" viewBox="0 0 51 31" fill="none" xmlns="http://www.w3.org/2000/svg">
<g id="icon-logo-klarna">
<path id="Vector" d="M18.8247 11.2345H17.8272C17.5776 11.2351 17.5541 11.2598 17.5541 11.5125V18.9069C17.5541 19.1133 17.5896 19.1475 17.7929 19.1487C18.119 19.1506 18.4457 19.1487 18.773 19.1487C19.0804 19.1487 19.1087 19.1217 19.1087 18.8185V12.5418V11.5101C19.1081 11.276 19.0647 11.2351 18.8247 11.2345ZM12.29 11.2351C11.986 11.2326 11.6819 11.2328 11.3779 11.2357C11.0591 11.2406 10.8828 11.4222 10.8828 11.7423V18.881C10.8828 19.091 10.9111 19.1193 11.1217 19.1193C11.4309 19.1217 11.7407 19.1217 12.0499 19.1193C12.3748 19.1169 12.5378 18.955 12.5378 18.632V11.4932C12.5384 11.2845 12.4945 11.2369 12.29 11.2351ZM16.7329 18.9394C16.6445 18.0586 16.3238 17.2771 15.7071 16.6316C15.043 15.9373 14.226 15.5553 13.335 15.4669C13.0474 15.4615 13.045 15.4615 13.0528 15.6786C13.0558 15.7587 13.0715 15.8375 13.0835 15.9169C13.2429 16.9727 13.7591 17.8138 14.6182 18.4425C15.1813 18.8564 15.8184 19.0711 16.5121 19.1361C16.7185 19.156 16.7533 19.1415 16.7329 18.9394ZM16.5169 11.2544C16.4381 11.267 16.3563 11.2622 16.2781 11.2742C15.3745 11.418 14.6074 11.8181 13.9974 12.5033C13.4385 13.1302 13.128 13.8696 13.0546 14.7046C13.036 14.9224 13.048 14.923 13.2772 14.9525C13.5919 14.8749 13.9191 14.8274 14.22 14.7131C15.7222 14.1427 16.544 13.0358 16.7335 11.4475C16.7576 11.246 16.7239 11.2231 16.5169 11.2544ZM24.5773 14.9832C24.5545 14.1066 24.0557 13.5201 23.2123 13.3125C22.2767 13.0803 21.3497 13.2162 20.4274 13.413C20.3179 13.4358 20.2728 13.5146 20.2752 13.6296C20.28 13.8347 20.2764 14.0417 20.2764 14.248C20.2764 14.5422 20.3149 14.5566 20.6061 14.5392C21.1998 14.5027 21.7944 14.483 22.3892 14.4802C22.7442 14.4802 22.9596 14.6806 23.0185 15.0018C23.0372 15.1017 23.03 15.2076 23.03 15.3105C23.0312 15.7093 23.0306 15.7129 22.6371 15.7081C22.0872 15.7027 21.5392 15.7208 21.0067 15.882C20.4569 16.0468 20.0616 16.3723 19.9425 16.9583C19.8661 17.3356 19.8741 17.7251 19.966 18.0989C20.0935 18.6253 20.4124 18.9839 20.9333 19.1391C21.5121 19.3094 22.0854 19.2847 22.6359 19.0182C22.7935 18.9418 22.9433 18.8479 23.1196 18.7499C23.1268 18.8046 23.1322 18.8323 23.1334 18.8606C23.1467 19.1193 23.1792 19.1518 23.4415 19.1518C23.7507 19.1524 24.0599 19.153 24.3698 19.1518C24.5496 19.1506 24.6134 19.0934 24.6128 18.9183C24.605 17.6062 24.6116 16.2935 24.5773 14.9832ZM22.8778 17.9383C22.5409 18.0689 22.2003 18.1392 21.8388 18.0767C21.6138 18.0382 21.4489 17.9046 21.4297 17.676C21.4127 17.466 21.4249 17.2546 21.4658 17.0479C21.5097 16.8301 21.6697 16.6707 21.8881 16.643C22.2443 16.5991 22.6046 16.5895 22.9632 16.5769C22.9951 16.5757 23.0558 16.6533 23.0588 16.6978C23.0703 16.8747 23.0637 17.0527 23.0637 17.2302C23.0637 17.3686 23.0528 17.5069 23.0667 17.6435C23.0847 17.8023 23.0227 17.883 22.8778 17.9383ZM40.1164 12.8607V12.9058H40.2427V13.2746H40.2968V12.9058H40.4232V12.8607H40.1164ZM40.8569 12.8607H40.7854L40.7114 13.061C40.6939 13.1134 40.6783 13.1585 40.668 13.2006C40.6554 13.1573 40.6422 13.1116 40.6253 13.061L40.5549 12.8607H40.487L40.4587 13.2746H40.5092L40.5212 13.0965C40.5248 13.0356 40.5274 12.9746 40.5291 12.9136H40.5303C40.5429 12.9624 40.5585 13.0159 40.5778 13.0743L40.6452 13.2722H40.6855L40.7583 13.0707C40.7793 13.0135 40.7956 12.9618 40.81 12.9136H40.8112C40.8112 12.9642 40.8148 13.0352 40.819 13.0923L40.8287 13.2746H40.8828L40.8569 12.8607ZM34.4149 15.3742C34.4109 15.0591 34.3747 14.7452 34.3066 14.4375C34.1712 13.8028 33.8072 13.3558 33.1389 13.2391C32.4091 13.1098 31.7136 13.2132 31.0874 13.638C31.026 13.6789 30.9646 13.7162 30.8594 13.783C30.8545 13.6596 30.8473 13.5832 30.8461 13.5056C30.8413 13.3035 30.8064 13.2656 30.6031 13.2644C30.28 13.2626 29.9599 13.262 29.6393 13.265C29.4504 13.2662 29.3938 13.3251 29.3938 13.5134V18.8786C29.3938 19.0886 29.4504 19.1463 29.6561 19.1475C30.0117 19.1487 30.3672 19.1439 30.7228 19.1506C30.8816 19.1524 30.9532 19.0898 30.9502 18.9268C30.9442 18.5718 30.9484 18.2168 30.9484 17.8607C30.9484 16.915 30.9466 15.9692 30.952 15.0235C30.952 14.9453 30.9725 14.828 31.0248 14.7955C31.4195 14.5524 31.843 14.4032 32.314 14.4814C32.5733 14.5242 32.755 14.6764 32.8038 14.9441C32.8381 15.1294 32.8639 15.3177 32.8639 15.5054C32.8711 16.6298 32.8675 17.753 32.8675 18.8768C32.8675 19.1217 32.8958 19.1487 33.1467 19.1487C33.4679 19.1506 33.7898 19.1506 34.1105 19.1487C34.3878 19.1487 34.4197 19.1181 34.4197 18.8467C34.4197 17.6904 34.4275 16.5329 34.4149 15.3742ZM39.8902 15.3075C39.8913 15.1295 39.8792 14.9518 39.8541 14.7756C39.747 14.0898 39.3794 13.6001 38.7134 13.3781C38.4321 13.2824 38.1398 13.2232 37.8435 13.2018C37.1432 13.1579 36.4513 13.2415 35.7661 13.3961C35.6157 13.431 35.5525 13.5128 35.5531 13.6596V14.227C35.5531 14.5314 35.5952 14.5548 35.8912 14.5392C36.4808 14.5061 37.0698 14.4796 37.6588 14.476C38.039 14.4748 38.252 14.6703 38.3163 15.0464C38.3452 15.2148 38.3296 15.3899 38.3386 15.5601C38.3446 15.6732 38.2911 15.7105 38.1828 15.7069C37.9361 15.7033 37.6864 15.6823 37.4434 15.7117C37.0253 15.7611 36.6011 15.8092 36.1969 15.9223C35.6608 16.0733 35.3131 16.4481 35.2253 17.0124C35.1898 17.2464 35.1958 17.4895 35.2072 17.7277C35.2529 18.6951 35.9911 19.3304 36.9567 19.2522C37.4446 19.2143 37.9042 19.0982 38.3037 18.8004C38.3308 18.7812 38.3651 18.7703 38.4024 18.7535C38.4198 18.78 38.4306 18.7866 38.4318 18.7974C38.4377 18.8259 38.4411 18.8549 38.4421 18.884C38.4553 19.1337 38.4716 19.1487 38.7278 19.1487C39.0262 19.1506 39.3234 19.1506 39.6218 19.1487C39.8619 19.1487 39.8914 19.1217 39.8914 18.8852C39.892 17.6928 39.8932 16.4998 39.8902 15.3075ZM38.3747 17.6983C38.3789 17.8078 38.332 17.8655 38.2363 17.9082C37.8844 18.064 37.5228 18.1441 37.136 18.0809C36.8574 18.0334 36.6944 17.8445 36.6992 17.4943C36.7082 16.8993 36.8394 16.6304 37.5631 16.5757C37.7791 16.5588 37.9987 16.5763 38.2159 16.5714C38.338 16.566 38.3771 16.6232 38.3747 16.7363C38.3693 16.9023 38.3723 17.0696 38.3723 17.2344C38.3735 17.3884 38.3675 17.5424 38.3747 17.6983ZM28.7459 13.4076C28.7465 13.2542 28.6779 13.1886 28.5257 13.1946C28.0879 13.2106 27.665 13.3575 27.3116 13.6163C27.2623 13.6524 27.213 13.6855 27.139 13.7384C27.133 13.656 27.1263 13.6073 27.1263 13.558C27.1215 13.3113 27.0782 13.2656 26.837 13.2656C26.5259 13.2644 26.2179 13.265 25.9081 13.265C25.6247 13.2656 25.5778 13.3113 25.5778 13.5935V18.8383C25.5778 19.0922 25.6337 19.1487 25.875 19.1487C26.2011 19.1506 26.5289 19.1506 26.8556 19.1487C27.1191 19.1487 27.1612 19.109 27.1612 18.8371C27.1618 17.5659 27.163 16.2929 27.1588 15.0187C27.1588 14.8929 27.1955 14.8213 27.311 14.7666C27.6937 14.5867 28.0859 14.452 28.5161 14.4694C28.6737 14.476 28.7501 14.4165 28.7465 14.2498C28.7406 13.9691 28.7404 13.6883 28.7459 13.4076Z" fill="white"/>
</g>
</svg>
