<svg width="51" height="17" viewBox="0 0 51 17" fill="none" xmlns="http://www.w3.org/2000/svg">
<path d="M26.7139 5.29689C26.664 7.60462 28.7118 8.88669 30.2601 9.65593C31.8085 10.4252 32.3579 10.938 32.3579 11.656C32.3579 12.7329 31.1092 13.1944 29.9605 13.2457C27.9127 13.297 26.7639 12.6816 25.8149 12.2201L25.0657 15.7073C26.0147 16.1688 27.7628 16.5278 29.5609 16.5791C33.8064 16.5791 36.5534 14.4252 36.6034 11.0918C36.6034 6.88666 30.9095 6.63024 30.9594 4.73278C30.9594 4.16867 31.5088 3.55328 32.6576 3.39943C33.257 3.29687 34.8053 3.24558 36.6533 4.11739L37.3526 0.732726C36.4036 0.373747 35.1549 0.0147667 33.5566 0.0147667C29.5609 0.0147667 26.7639 2.16864 26.7139 5.29689ZM44.1453 0.271181C43.3961 0.271181 42.6969 0.732725 42.4472 1.45068L36.3536 16.2714H40.5991L41.4482 13.8611H46.6427L47.1422 16.2714H50.8882L47.6416 0.271181H44.1453ZM44.7447 4.63022L45.9434 10.6303H42.597L44.7447 4.63022ZM21.6194 0.271181L18.2729 16.2714H22.3186L25.665 0.271181H21.6194ZM15.6258 0.271181L11.4302 11.1431L9.73203 1.91223C9.53225 0.886574 8.7331 0.271181 7.884 0.271181H1.0413L0.941406 0.732726C2.33992 1.04042 3.93821 1.55325 4.93715 2.11736C5.53651 2.42506 5.68635 2.73275 5.88613 3.502L9.08273 16.2714H13.3282L19.8712 0.271181H15.6258Z" fill="white"/>
</svg>
