<svg width="15" height="18" viewBox="0 0 15 18" fill="none" xmlns="http://www.w3.org/2000/svg">
<path fill-rule="evenodd" clip-rule="evenodd" d="M7.91493 0.745117C4.38212 0.745117 0.890625 3.07487 0.890625 6.8454C0.890625 9.24328 2.25417 10.6057 3.08056 10.6057C3.42144 10.6057 3.61771 9.66564 3.61771 9.39996C3.61771 9.0832 2.80165 8.40879 2.80165 7.09064C2.80165 4.35215 4.90894 2.41069 7.63602 2.41069C9.9809 2.41069 11.7163 3.72884 11.7163 6.15056C11.7163 7.95919 10.9829 11.3516 8.60703 11.3516C7.74965 11.3516 7.01623 10.7386 7.01623 9.85978C7.01623 8.57228 7.92526 7.32566 7.92526 5.99729C7.92526 3.74247 4.69201 4.1512 4.69201 6.87606C4.69201 7.44828 4.76432 8.08181 5.02257 8.60294C4.5474 10.6262 3.57639 13.6405 3.57639 15.725C3.57639 16.3688 3.66936 17.0023 3.73134 17.6461C3.84841 17.7755 3.78987 17.7619 3.96892 17.6972C5.70434 15.347 5.64236 14.8872 6.42743 11.8115C6.85095 12.6085 7.94592 13.0377 8.81363 13.0377C12.4704 13.0377 14.1128 9.51236 14.1128 6.33449C14.1128 2.95226 11.1585 0.745117 7.91493 0.745117Z" fill="#303030"/>
</svg>
