<svg width="16" height="17" viewBox="0 0 16 17" fill="none" xmlns="http://www.w3.org/2000/svg">
<path id="Vector" d="M15.847 15.6026L11.9702 11.6746C12.9904 10.4556 13.6706 8.96561 13.6706 7.27249C13.6026 3.54762 10.61 0.5 6.80127 0.5C2.99256 0.5 0 3.54762 0 7.27249C0 10.9974 3.06057 14.045 6.80127 14.045C8.43358 14.045 9.99787 13.4355 11.2221 12.4196L15.0988 16.3476C15.3029 16.5508 15.6429 16.5508 15.847 16.3476C16.051 16.2122 16.051 15.8735 15.847 15.6026ZM1.02019 7.27249C1.02019 4.15714 3.53666 1.5836 6.73326 1.5836C9.92986 1.5836 12.4463 4.08942 12.4463 7.27249C12.4463 10.4556 9.92986 12.9614 6.73326 12.9614C3.53666 12.9614 1.02019 10.4556 1.02019 7.27249Z" fill="#121212"/>
</svg>
