<svg width="15" height="14" viewBox="0 0 15 14" fill="none" xmlns="http://www.w3.org/2000/svg">
<path id="Vector" d="M7.41458 0.909479C7.41966 0.893396 7.42589 0.888522 7.42919 0.886256C7.4345 0.882607 7.44386 0.878906 7.4563 0.878906C7.46873 0.878906 7.4781 0.882607 7.48341 0.886256C7.48671 0.888522 7.49293 0.893396 7.49802 0.909479L8.80595 5.04989C8.89219 5.32288 9.1454 5.50847 9.4317 5.50847H13.6848C13.7012 5.50847 13.7077 5.51277 13.7111 5.51533C13.7162 5.51928 13.7225 5.52692 13.7263 5.53842C13.7301 5.54992 13.7297 5.55981 13.7279 5.56605C13.7267 5.5701 13.7241 5.57748 13.711 5.58726L10.2534 8.17114C10.0298 8.3382 9.9364 8.62841 10.0204 8.8945L11.3371 13.0626C11.3421 13.0784 11.3399 13.086 11.3385 13.0899C11.3362 13.0959 11.3308 13.1043 11.3207 13.1114C11.3107 13.1186 11.301 13.1209 11.2945 13.1211C11.2905 13.1211 11.2826 13.1208 11.2692 13.1108L7.84914 10.555C7.61618 10.3809 7.29642 10.3809 7.06346 10.555L3.6434 13.1108C3.63005 13.1208 3.62218 13.1211 3.6181 13.1211C3.61164 13.1209 3.60192 13.1186 3.59188 13.1114C3.58184 13.1043 3.57636 13.0959 3.57412 13.0899C3.57271 13.086 3.57047 13.0784 3.5755 13.0626L4.89216 8.8945C4.97622 8.62841 4.88278 8.3382 4.65923 8.17114L1.20161 5.58726C1.18853 5.57748 1.18584 5.5701 1.1847 5.56606C1.18294 5.55981 1.18247 5.54992 1.18629 5.53842C1.19012 5.52692 1.19641 5.51928 1.20156 5.51533C1.20488 5.51277 1.21146 5.50847 1.2278 5.50847H5.48088C5.76716 5.50847 6.02041 5.32288 6.10664 5.04989L7.41458 0.909479Z" fill="#CCCCCC" stroke="#CCCCCC" stroke-width="0.6125"/>
</svg>
