<svg width="14" height="14" viewBox="0 0 14 14" fill="none" xmlns="http://www.w3.org/2000/svg">
<path id="Vector" d="M7.2312 0.909479C7.23628 0.893396 7.24251 0.888522 7.24581 0.886256C7.25112 0.882607 7.26048 0.878906 7.27292 0.878906C7.28535 0.878906 7.29472 0.882607 7.30003 0.886256C7.30333 0.888522 7.30955 0.893396 7.31464 0.909479L8.62257 5.04989C8.70881 5.32288 8.96202 5.50847 9.24832 5.50847H13.5014C13.5178 5.50847 13.5244 5.51277 13.5277 5.51533C13.5328 5.51928 13.5391 5.52692 13.5429 5.53842C13.5468 5.54992 13.5463 5.55981 13.5445 5.56605C13.5433 5.5701 13.5407 5.57748 13.5276 5.58726L10.07 8.17114C9.84647 8.3382 9.75302 8.62841 9.83702 8.8945L11.1537 13.0626C11.1587 13.0784 11.1565 13.086 11.1551 13.0899C11.1528 13.0959 11.1474 13.1043 11.1374 13.1114C11.1273 13.1186 11.1176 13.1209 11.1111 13.1211C11.1071 13.1211 11.0992 13.1208 11.0858 13.1108L7.66576 10.555C7.4328 10.3809 7.11304 10.3809 6.88008 10.555L3.46002 13.1108C3.44667 13.1208 3.4388 13.1211 3.43472 13.1211C3.42826 13.1209 3.41854 13.1186 3.4085 13.1114C3.39846 13.1043 3.39298 13.0959 3.39074 13.0899C3.38932 13.086 3.38709 13.0784 3.39212 13.0626L4.70878 8.8945C4.79284 8.62841 4.6994 8.3382 4.47585 8.17114L1.01823 5.58726C1.00515 5.57748 1.00246 5.5701 1.00132 5.56606C0.99956 5.55981 0.999087 5.54992 1.00291 5.53842C1.00673 5.52692 1.01303 5.51928 1.01818 5.51533C1.0215 5.51277 1.02808 5.50847 1.04442 5.50847H5.2975C5.58378 5.50847 5.83703 5.32288 5.92326 5.04989L7.2312 0.909479Z" fill="#121212" stroke="#121212" stroke-width="0.6125"/>
</svg>
