<svg width="18" height="15" viewBox="0 0 18 15" fill="none" xmlns="http://www.w3.org/2000/svg">
<path fill-rule="evenodd" clip-rule="evenodd" d="M15.9536 2.40203C16.7075 1.94421 17.2164 1.28842 17.483 0.434647C16.7931 0.855345 16.0574 1.13993 15.2746 1.30079C14.5859 0.546008 13.7392 0.174805 12.7333 0.174805C11.772 0.174805 10.9518 0.521261 10.2728 1.21417C9.59492 1.90709 9.2548 2.76086 9.2548 3.73836C9.2548 4.01058 9.28374 4.28279 9.34164 4.55501C7.91961 4.48077 6.58684 4.12194 5.34091 3.45377C4.09498 2.79798 3.03841 1.91946 2.17 0.830598C1.85399 1.37503 1.69599 1.98133 1.69599 2.62475C1.69599 3.24342 1.8359 3.80023 2.11572 4.33229C2.39554 4.85197 2.77306 5.27267 3.24587 5.59438C2.68622 5.56963 2.16276 5.42115 1.67428 5.14893V5.18605C1.67428 6.0522 1.93842 6.80698 2.4655 7.46277C2.99378 8.10619 3.65957 8.52689 4.46285 8.68774C4.16132 8.77435 3.85617 8.81147 3.5474 8.81147C3.34718 8.81147 3.12766 8.7991 2.89126 8.76198C3.11319 9.46727 3.52207 10.0612 4.1191 10.519C4.71493 10.9768 5.38915 11.2119 6.14298 11.2367C4.87896 12.2513 3.44005 12.7586 1.82505 12.7586C1.51628 12.7586 1.23646 12.7462 0.984375 12.7091C2.60059 13.7856 4.38083 14.3177 6.32632 14.3177C7.56139 14.3177 8.72048 14.1197 9.80479 13.7114C10.8879 13.3154 11.8142 12.771 12.5825 12.1028C13.3508 11.4223 14.013 10.6551 14.5702 9.7766C15.1262 8.89809 15.5399 7.98245 15.8137 7.0297C16.0863 6.07694 16.2226 5.12419 16.2226 4.15906C16.2226 3.96108 16.219 3.80023 16.2117 3.70124C16.8944 3.19393 17.4758 2.57525 17.9558 1.85759C17.2888 2.14218 16.6206 2.32779 15.9536 2.40203Z" fill="#303030"/>
</svg>
