<svg width="17" height="14" viewBox="0 0 17 14" fill="none" xmlns="http://www.w3.org/2000/svg">
<path d="M8.49473 0.745117C8.49473 0.745117 3.18154 0.745123 1.84799 1.12377C1.13397 1.34177 0.546026 1.98424 0.346519 2.77594C7.95722e-06 4.23313 0 7.25086 0 7.25086C0 7.25086 7.95722e-06 10.28 0.346519 11.7143C0.546026 12.506 1.12347 13.137 1.84799 13.355C3.19204 13.7451 8.49473 13.7451 8.49473 13.7451C8.49473 13.7451 13.8185 13.7451 15.152 13.3665C15.8765 13.1485 16.4539 12.5289 16.6429 11.7258C17 10.28 17 7.26234 17 7.26234C17 7.26234 17.0105 4.23313 16.6429 2.77594C16.4539 1.98424 15.8765 1.35326 15.152 1.14673C13.8185 0.745135 8.49473 0.745117 8.49473 0.745117ZM7 4.74512L12 7.75131L7 10.7451V4.74512Z" fill="#303030"/>
</svg>
